<?xml version="1.0" encoding="utf-8"?>
<!-- Generator: Adobe Illustrator 22.0.0, SVG Export Plug-In . SVG Version: 6.00 Build 0)  -->
<svg version="1.1" id="Calque_1" xmlns="http://www.w3.org/2000/svg" xmlns:xlink="http://www.w3.org/1999/xlink" x="0px" y="0px"
	 viewBox="0 0 32 32" style="enable-background:new 0 0 32 32;" xml:space="preserve">
<style type="text/css">
	.st0{fill:#E55025;}
	.st1{opacity:0.3;fill:#BD2126;}
	.st2{fill:#1D1C1B;}
	.st3{fill:#73C4C2;}
	.st4{fill:#00A099;}
</style>
<g>
	<g>
		<g>
			<path class="st0" d="M18,15.3c0.5,0.2,0.7,0.6,0.7,1.1c-0.1,0.5-0.3,1-0.5,1.4c-1,1.8-2.3,3.5-3.6,5.1c-0.9,1.2-1.9,2.4-2.9,3.5
				c-0.6,0.7-1.2,1.4-1.8,2c-0.3,0.3-0.6,0.9-1.1,0.6c-0.5-0.3-0.2-0.9-0.1-1.3c0.1-0.5,0.2-1.1,0.4-1.6c0.4-1.4,0.7-2.9,0.9-4.3
				c0.2-1.4,0-1.7-1.4-1.9c-0.8-0.2-1.6-0.3-2.4-0.5c-2.3-0.6-2-1.1-1.5-2.6c0.3-1.1,0.7-2.1,1.3-3.1c0.1-0.2,0.3-0.4,0.4-0.6
				c0.4-0.7,0.3-0.9-0.5-1c-0.2,0-0.3,0-0.5-0.1c-0.2,0-0.3,0-0.6-0.1c-0.8,0-1.6-0.4-2.5-0.6c-0.6-0.2-0.9-0.5-0.7-1.2
				c0.7-2,1.4-4,2.7-5.8C4.3,4,4.7,4,5.1,3.9c1.2-0.1,2.3-0.1,3.5-0.1c0.7,0,1.5,0,2.2,0c1.1,0,2.3,0,3.4,0c0.9,0,1,0.2,0.6,1
				c-0.3,0.5-0.6,1-0.8,1.5c-0.6,1.1-0.3,1.7,0.8,2.1c0.5,0.2,0.9,0.3,1.4,0.5c1,0.4,1.2,0.7,0.9,1.7c-0.2,0.8-0.5,1.7-0.8,2.5
				c-0.4,1-0.2,1.4,0.8,1.8C17.3,15.1,17.7,15.2,18,15.3z"/>
			<path class="st1" d="M7.7,17.2c-1.3-0.7,1.6-3.3,1-5.6c-0.7-1.6-3-1-3.3-2.3C4.9,7.2,5.8,5.6,6.8,3.9c-0.6,0-1.2,0-1.7,0.1
				C4.7,4,4.3,4,4.1,4.4c-1.3,1.8-2,3.8-2.7,5.8c-0.2,0.6,0,1,0.7,1.2c0.9,0.2,1.7,0.6,2.5,0.6C4.8,12,5,12,5.2,12
				c0.2,0,0.3,0,0.5,0.1c0.8,0.1,0.9,0.3,0.5,1c-0.1,0.2-0.2,0.4-0.4,0.6c-0.6,1-1,2-1.3,3.1c-0.5,1.6-0.8,2,1.5,2.6
				c0.8,0.2,1.6,0.4,2.4,0.5c1.4,0.3,1.6,0.6,1.4,1.9c-0.2,1.5-0.5,2.9-0.9,4.3c-0.2,0.5-0.3,1.1-0.4,1.6c-0.1,0.4-0.4,1,0.1,1.3
				c0.5,0.3,0.8-0.3,1.1-0.6c0.6-0.7,1.2-1.3,1.8-2c0.6-0.7,1.2-1.4,1.8-2.2C12.9,21.3,11,19.1,7.7,17.2z"/>
			<path class="st2" d="M18.7,14.6c0.8,0.4,1,0.8,0.9,1.7c-0.1,0.7-0.5,1.3-0.8,1.9c-1.1,1.9-2.4,3.6-3.8,5.3c-1,1.2-2,2.3-3,3.4
				l-0.5-0.4c1-1.1,2-2.3,2.9-3.5c1.3-1.6,2.6-3.3,3.6-5.1c0.3-0.5,0.5-0.9,0.5-1.4c0.1-0.5-0.1-0.9-0.7-1.1
				c-0.4-0.1-0.7-0.2-1.1-0.4c-1-0.4-1.2-0.8-0.8-1.8c0.3-0.8,0.6-1.6,0.8-2.5c0.3-1.1,0.1-1.3-0.9-1.7c-0.5-0.2-0.9-0.3-1.4-0.5
				c-1.2-0.4-1.4-1-0.8-2.1c0.3-0.5,0.6-1,0.8-1.5c0.4-0.8,0.3-1-0.6-1c-1.1,0-2.3,0-3.4,0c-0.7,0-1.5,0-2.2,0l0-0.7
				c2.2,0,4.4-0.1,6.5-0.1c0.2,0,0.3,0,0.5,0c0.3,0,0.7-0.1,0.9,0.2c0.2,0.4,0,0.7-0.2,0.9c-0.5,0.7-1.1,1.4-1.4,2.3
				c-0.4,0.9-0.3,1,0.5,1.4c0.6,0.2,1.2,0.4,1.7,0.7c0.8,0.3,0.9,0.5,0.8,1.3c-0.1,1-0.4,2-0.7,3c-0.3,0.9-0.3,1,0.6,1.4
				C18.1,14.4,18.4,14.5,18.7,14.6z"/>
			<path class="st2" d="M4.5,16.9c-0.5,1.6-0.8,2,1.5,2.6c0.8,0.2,1.6,0.4,2.4,0.5c1.4,0.3,1.6,0.6,1.4,1.9
				c-0.2,1.5-0.5,2.9-0.9,4.3c-0.2,0.5-0.3,1.1-0.4,1.6c-0.1,0.4-0.4,1,0.1,1.3c0.5,0.3,0.8-0.3,1.1-0.6c0.6-0.7,1.2-1.3,1.8-2
				l0.5,0.4c-0.8,0.9-1.5,1.8-2.3,2.7C9.4,30,9,30.3,8.4,30.1c-0.5-0.2-0.8-0.5-0.8-1.1c0-0.7,0.1-1.3,0.3-1.9
				c0.4-1.3,0.7-2.7,0.9-4c0.4-2.2,0.2-2.2-1.6-2.5c-0.8-0.2-1.6-0.3-2.4-0.5c-1.6-0.4-2-1.3-1.5-2.7c0.5-1.2,0.9-2.4,1.4-3.5
				c0.4-1,0.4-1.1-0.7-1.2c-0.1,0-0.3,0-0.6-0.1c-0.5-0.1-1.1-0.2-1.7-0.4C0.5,11.8,0,10.8,0.5,9.6c0.9-1.9,1.9-3.8,2.8-5.8
				C3.6,3.3,4,3.2,4.6,3.2c1.3,0,2.7,0,4,0l0,0.7c-1.2,0-2.3,0-3.5,0.1C4.7,4,4.3,4,4.1,4.4c-1.3,1.8-2,3.8-2.7,5.8
				c-0.2,0.6,0,1,0.7,1.2c0.9,0.2,1.7,0.6,2.5,0.6C4.8,12,5,12,5.2,12c0.2,0,0.3,0,0.5,0.1c0.8,0.1,0.9,0.3,0.5,1
				c-0.1,0.2-0.2,0.4-0.4,0.6C5.2,14.7,4.8,15.8,4.5,16.9z"/>
		</g>
		<g>
			<path class="st3" d="M31.2,21.1c0,0.5-0.2,0.8-0.6,0.9c-0.5,0-0.6-0.2-0.6-0.5c0-0.5,0.2-0.8,0.6-0.8
				C30.9,20.6,31.2,20.7,31.2,21.1z"/>
			<path class="st3" d="M25.4,15.5c0.6,0,1,0.4,1,1.1c0,0.8-0.4,1.2-1.1,1.2c-0.7,0-1.1-0.5-1-1.1C24.2,15.9,24.6,15.5,25.4,15.5z"
				/>
			<path class="st3" d="M18.2,10.1c0.5,0.1,0.8,0.3,0.8,0.7c0,0.5-0.5,0.9-1.1,0.9l-0.1,0c-0.6,0-0.9-0.3-0.9-0.8
				c0-0.5,0.4-0.8,1-0.8C18,10.1,18.1,10.1,18.2,10.1z"/>
			<path class="st3" d="M17.2,18.2c0,0.5-0.2,0.8-0.6,0.8c-0.4,0-0.8-0.3-0.8-0.8c0-0.4,0.3-0.7,0.7-0.7
				C16.9,17.4,17.2,17.7,17.2,18.2z"/>
			<path class="st3" d="M23.8,27.4c0,0,0,0.1,0.1,0.2c-0.1,0.4-0.4,0.6-0.7,0.6c-0.4,0.1-0.7-0.1-0.8-0.4c0-0.1,0-0.1,0-0.2
				C22.4,27.3,23.6,27.2,23.8,27.4z"/>
			<path class="st3" d="M13.8,23.2c0.5,0,1,0.7,1,1.4c0,0.7-0.3,1-1,1c-0.7,0-1.1-0.5-1.1-1.2C12.7,23.7,13.2,23.1,13.8,23.2z"/>
			<path class="st2" d="M31.2,19.9c0.5,0.1,0.9,0.4,0.8,1c-0.1,0.6-0.1,1.3-0.8,1.6c-0.3,0.2-0.7,0.3-1.1,0.3
				c-0.5,0-0.9,0.2-1.2,0.6l-0.7-0.2c0.9-1.3,1.4-2.8,1.3-4.4c-0.1-1.7-0.3-2.9-0.9-3.8c-1.3-1.9-3-3.4-5.2-4.3
				c-0.9-0.4-1.9-0.5-2.8-0.4c-0.4,0-0.7,0.2-0.9,0.7c-0.3,1-1.1,1.6-2.1,1.4l0-0.7l0.1,0c0.6,0,1.1-0.3,1.1-0.9
				c0-0.4-0.3-0.6-0.8-0.7l0.1-0.8c0.7,0.1,1.4,0.1,2.1,0c1.1-0.1,2.3,0.1,3.4,0.5c0.4,0.1,0.8,0.2,1.3,0c0.3-0.2,0.7-0.1,1.1,0
				c1,0.2,1.4,0.8,1.4,1.8c-0.1,0.5,0.1,0.8,0.5,1.2c1.7,1.6,2.6,3.6,2.5,6C30.5,19.3,30.6,19.7,31.2,19.9z M30.6,21.9
				c0.3,0,0.6-0.4,0.6-0.9c0-0.4-0.3-0.5-0.6-0.4c-0.4,0-0.6,0.3-0.6,0.8C30,21.7,30.1,22,30.6,21.9z"/>
			<path class="st4" d="M29.6,18.7c0.1,1.6-0.4,3.1-1.3,4.4c-1.2,1.8-3.1,3.1-5.3,3.5c-1.2,0.2-2.4,0.2-3.5,0.1
				c-0.6-0.1-1.3-0.2-1.9-0.3c-0.4-0.1-0.8-0.3-1.3-0.5c-0.5-0.2-0.8-0.6-0.8-1.2c0.1-1.1-0.5-1.8-1.5-2.3c-0.4-0.2-0.7-0.4-0.7-0.8
				c-0.4-3-0.4-6,1.9-8.4c0.7-0.7,1.3-1.3,2.5-1c1,0.3,1.8-0.3,2.1-1.4c0.1-0.5,0.4-0.7,0.9-0.7c1-0.1,1.9,0,2.8,0.4
				c2.1,0.9,3.8,2.4,5.2,4.3C29.3,15.8,29.5,16.9,29.6,18.7z M27.2,16.5c0-0.9-0.8-1.7-1.8-1.7c-1.2,0-2,0.8-2,1.8
				c0,1.1,0.9,1.8,2.1,1.8C26.5,18.5,27.1,17.8,27.2,16.5z M24.2,23.3c0-0.7-0.4-1.1-1.1-1.1c-0.9,0-1.7,0.7-1.7,1.5
				c0,0.7,0.6,1.1,1.3,1.1C23.6,24.8,24.2,24.1,24.2,23.3z M16.7,19.7c0.8,0,1.4-0.7,1.3-1.8c0-0.7-0.7-1.3-1.5-1.3
				c-0.8,0-1.5,0.7-1.5,1.5C15,18.9,15.8,19.7,16.7,19.7z"/>
			<path class="st4" d="M28.7,14.9c-1.1-1.6-2.5-2.9-4.1-3.8c0.3,1.2,0.4,2.5,0.3,3.7c0.1,0,0.3,0,0.5,0c1,0,1.8,0.7,1.8,1.7
				c0,1.3-0.7,2-1.8,2c-0.5,0-0.9-0.1-1.3-0.4c-0.7,1.7-1.8,3.2-3.3,4.3c-1.7,1.1-4.1,1.4-5.9,0.6c0.4,0.4,0.6,1,0.6,1.7
				c0,0.6,0.2,1,0.8,1.2c0.4,0.2,0.8,0.4,1.3,0.5c0.6,0.1,1.3,0.2,1.9,0.3c1.2,0.1,2.3,0.1,3.5-0.1c2.2-0.3,4.1-1.7,5.3-3.5
				c0.9-1.3,1.4-2.8,1.3-4.4C29.5,16.9,29.3,15.8,28.7,14.9z M22.8,24.8c-0.8,0-1.3-0.5-1.3-1.1c0-0.8,0.7-1.5,1.7-1.5
				c0.7,0,1.1,0.4,1.1,1.1C24.2,24.1,23.6,24.8,22.8,24.8z"/>
			<path class="st4" d="M13.3,21.8c0.1,0.3,0.3,0.5,0.6,0.6C13.7,22.3,13.5,22,13.3,21.8z"/>
			<path class="st2" d="M28.3,23.1l0.7,0.2c0,0.1-0.1,0.1-0.1,0.2c-0.8,1.4-2,2.4-3.4,3.3c-0.3,0.2-0.5,0.5-0.6,0.8
				c-0.1,0.5-0.4,0.9-0.9,1.2c-0.8,0.6-1.6,0.6-2.2-0.2c-0.7-0.9-1.5-1.1-2.4-1.2l0.1-0.7c1.2,0.1,2.3,0.1,3.5-0.1
				C25.1,26.2,27.1,24.9,28.3,23.1z M23.9,27.6c0-0.1,0-0.2-0.1-0.2c-0.2-0.3-1.4-0.1-1.5,0.2c0,0.1,0,0.1,0,0.2
				c0.2,0.3,0.5,0.5,0.8,0.4C23.5,28.2,23.8,28,23.9,27.6z"/>
			<path class="st2" d="M25.3,14.8c1,0,1.8,0.7,1.8,1.7c0,1.3-0.7,2-1.8,2c-1.2,0-2-0.8-2.1-1.8C23.3,15.6,24.2,14.8,25.3,14.8z
				 M26.3,16.6c0-0.6-0.4-1.1-1-1.1c-0.7,0-1.1,0.4-1.2,1.1c0,0.7,0.4,1.1,1,1.1C25.9,17.8,26.3,17.4,26.3,16.6z"/>
			<path class="st2" d="M23.2,22.2c0.7,0,1.1,0.4,1.1,1.1c0,0.8-0.6,1.5-1.4,1.5c-0.8,0-1.3-0.5-1.3-1.1
				C21.5,22.8,22.3,22.2,23.2,22.2z"/>
			<path class="st2" d="M19.4,26.7l-0.1,0.7c-0.1,0-0.3,0-0.4,0c-1,0-1.9-0.3-2.8-0.8c-0.6-0.3-1.1-0.5-1.8-0.4
				c-0.3,0-0.6,0-0.8-0.1c-1.6-0.3-2.2-1.6-1.3-3c0.3-0.4,0.3-0.8,0.3-1.3c-0.1-0.9-0.3-1.9-0.2-2.9c0-0.4-0.1-0.8-0.4-1.1
				c-0.5-0.5-0.6-1.1-0.6-1.7c0.1-0.9,0.5-1.4,1.4-1.5c0.6-0.1,0.9-0.3,1.1-0.7c0.4-0.7,0.9-1.2,1.5-1.7c0.4-0.3,0.6-0.8,0.7-1.3
				c0.2-1.3,0.8-1.7,2.1-1.5c0,0,0.1,0,0.1,0l-0.1,0.8c-0.1,0-0.2,0-0.2,0c-0.6,0-1,0.3-1,0.8c0,0.5,0.3,0.8,0.9,0.8l0,0.7
				c-1.2-0.3-1.8,0.3-2.5,1c-2.4,2.4-2.3,5.4-1.9,8.4c0,0.4,0.4,0.6,0.7,0.8c1,0.4,1.5,1.2,1.5,2.3c0,0.6,0.2,1,0.8,1.2
				c0.4,0.2,0.8,0.4,1.3,0.5C18.2,26.5,18.8,26.6,19.4,26.7z M14.8,24.6c0-0.7-0.4-1.3-1-1.4c-0.6,0-1.1,0.5-1.1,1.2
				c0,0.7,0.4,1.2,1.1,1.2C14.5,25.6,14.8,25.3,14.8,24.6z"/>
			<path class="st2" d="M18,17.9c0,1-0.5,1.7-1.3,1.8c-0.8,0-1.7-0.8-1.7-1.6c0-0.8,0.7-1.5,1.5-1.5C17.3,16.6,18,17.2,18,17.9z
				 M16.6,18.9c0.4,0,0.6-0.3,0.6-0.8c0-0.5-0.4-0.8-0.8-0.8c-0.4,0-0.7,0.4-0.7,0.7C15.8,18.6,16.2,18.9,16.6,18.9z"/>
		</g>
	</g>
</g>
</svg>
